<svg width="35" height="35" viewBox="0 0 35 36" fill="none" xmlns="http://www.w3.org/2000/svg">
<path d="M22.6042 21.2035H21.4521L21.0438 20.8098C22.5223 19.0948 23.3349 16.9054 23.3333 14.641C23.3333 12.7662 22.7774 10.9335 21.7358 9.37469C20.6942 7.81585 19.2138 6.60088 17.4817 5.88343C15.7496 5.16597 13.8437 4.97825 12.0049 5.34401C10.1661 5.70976 8.47707 6.61257 7.15139 7.93825C5.8257 9.26394 4.9229 10.953 4.55714 12.7917C4.19139 14.6305 4.37911 16.5365 5.09656 18.2686C5.81402 20.0006 7.02899 21.4811 8.58783 22.5227C10.1467 23.5643 11.9794 24.1202 13.8542 24.1202C16.2021 24.1202 18.3604 23.2598 20.0229 21.8306L20.4167 22.239V23.391L27.7083 30.6681L29.8813 28.4952L22.6042 21.2035ZM13.8542 21.2035C10.2229 21.2035 7.29167 18.2723 7.29167 14.641C7.29167 11.0098 10.2229 8.07854 13.8542 8.07854C17.4854 8.07854 20.4167 11.0098 20.4167 14.641C20.4167 18.2723 17.4854 21.2035 13.8542 21.2035Z" fill="#555555"/>
</svg>
